<?xml version="1.0" standalone="no"?>
<!DOCTYPE svg PUBLIC "-//W3C//DTD SVG 20010904//EN"
 "http://www.w3.org/TR/2001/REC-SVG-20010904/DTD/svg10.dtd">
<svg version="1.0" xmlns="http://www.w3.org/2000/svg"
 width="500.000000pt" height="500.000000pt" viewBox="0 0 500.000000 500.000000"
 preserveAspectRatio="xMidYMid meet">
<g transform="translate(0.000000,500.000000) scale(0.100000,-0.100000)"
fill="#000000" stroke="none">
<path d="M2625 2991 c-27 -9 -121 -41 -207 -70 -87 -29 -158 -58 -158 -64 0
-7 96 -44 213 -83 l212 -70 112 35 c62 20 113 38 113 41 0 3 -54 25 -120 48
-66 24 -122 47 -124 51 -3 4 -1 13 4 20 6 11 24 8 91 -17 188 -68 219 -88 237
-154 8 -30 7 -40 -5 -49 -9 -8 -12 -20 -7 -33 3 -12 7 -53 8 -93 1 -56 6 -78
22 -100 24 -32 60 -40 88 -20 19 14 18 15 -8 50 -15 20 -34 56 -41 81 -12 38
-12 46 1 57 18 15 18 43 -1 59 -8 7 -15 23 -15 37 0 13 -7 39 -15 59 -14 34
-14 35 11 44 14 6 36 13 49 16 57 14 21 34 -188 103 -116 39 -214 71 -217 70
-3 0 -27 -8 -55 -18z m85 -20 c0 -5 10 -7 22 -3 14 3 19 1 14 -6 -4 -8 -2 -10
7 -6 8 3 18 1 22 -5 9 -15 28 -14 19 2 -4 6 2 4 13 -5 11 -10 27 -18 36 -18 9
0 17 -5 17 -11 0 -5 4 -8 9 -5 5 3 27 -1 50 -9 23 -8 41 -12 41 -8 0 3 7 0 15
-7 8 -7 13 -16 10 -20 -3 -5 0 -12 6 -16 8 -5 9 -3 4 5 -5 9 1 11 25 7 38 -6
52 -16 22 -16 -12 0 -22 -5 -22 -11 0 -5 -5 -7 -10 -4 -6 3 -13 -1 -16 -9 -3
-9 -10 -13 -15 -10 -5 3 -6 10 -3 16 5 7 2 8 -5 3 -7 -4 -23 -3 -34 3 -36 17
-61 25 -71 23 -5 -1 -6 4 -3 12 3 9 -3 12 -24 11 -16 -1 -32 2 -35 7 -3 5 -11
6 -17 2 -7 -3 -3 4 8 17 l20 24 -24 -16 c-18 -13 -29 -14 -47 -6 -13 6 -21 14
-19 19 6 9 -32 1 -62 -14 -26 -12 -29 -29 -8 -50 8 -8 12 -17 9 -20 -5 -4 31
-15 63 -20 5 0 14 -7 22 -14 7 -8 19 -12 27 -9 7 3 18 -2 24 -9 7 -8 17 -12
23 -8 6 3 7 1 3 -5 -4 -6 -14 -8 -23 -5 -12 5 -14 3 -8 -8 4 -8 5 -11 0 -7 -4
4 -17 3 -28 -3 -15 -9 -18 -8 -12 3 3 7 -1 4 -9 -7 -18 -21 -44 -25 -91 -12
-16 5 -37 10 -45 11 -8 1 -25 8 -37 14 -12 7 -30 13 -40 15 -10 2 -31 9 -46
15 -16 7 -31 12 -35 12 -28 0 -81 23 -76 32 4 7 2 8 -5 4 -14 -9 -53 2 -46 13
2 5 25 14 50 21 25 7 48 16 51 21 2 4 11 6 19 2 9 -3 15 1 15 8 0 11 3 11 10
-1 5 -8 10 -10 10 -4 0 14 98 46 114 37 6 -3 7 -2 3 3 -4 4 9 14 30 20 47 15
83 17 83 5z m317 -288 c-4 -3 0 -11 8 -17 10 -8 12 -16 5 -26 -7 -11 -10 -11
-10 -2 0 7 -5 10 -10 7 -6 -4 -8 3 -6 17 6 30 5 28 13 28 3 0 3 -3 0 -7z m10
-165 c-12 -7 -2 -12 17 -9 5 1 4 -4 -3 -13 -9 -11 -9 -16 0 -22 8 -5 10 -3 4
7 -6 11 -5 12 5 2 8 -7 15 -20 16 -28 2 -12 -3 -12 -24 4 -21 15 -28 29 -30
62 -3 41 -2 42 12 24 11 -15 11 -22 3 -27z"/>
<path d="M2736 2796 c10 -8 21 -12 24 -10 5 6 -21 24 -34 24 -6 0 -1 -6 10
-14z"/>
<path d="M2723 2775 c0 -8 4 -12 9 -9 5 3 6 10 3 15 -9 13 -12 11 -12 -6z"/>
<path d="M2245 2780 c-3 -6 1 -7 9 -4 18 7 21 14 7 14 -6 0 -13 -4 -16 -10z"/>
<path d="M1619 2743 c-13 -16 -12 -17 4 -4 9 7 17 15 17 17 0 8 -8 3 -21 -13z"/>
<path d="M1785 2753 c-215 -29 -330 -189 -295 -408 30 -188 135 -262 388 -272
l132 -6 0 217 0 216 -135 0 -135 0 0 -65 0 -65 70 0 70 0 0 -90 0 -89 -27 4
c-16 2 -47 7 -71 10 -103 13 -165 93 -164 211 1 89 31 150 92 184 40 22 59 25
173 28 l127 4 0 64 0 64 -97 -1 c-54 -1 -111 -4 -128 -6z m154 -23 c36 0 38
-1 38 -33 l0 -34 -81 0 c-104 -1 -191 -26 -232 -67 -18 -18 -36 -30 -42 -28
-15 5 -24 -15 -11 -24 8 -5 9 -3 4 6 -5 9 -4 11 3 6 9 -5 7 -15 -6 -34 -13
-19 -17 -45 -16 -102 2 -90 7 -137 19 -147 4 -5 5 -1 1 7 -4 8 10 -5 32 -30
22 -25 44 -45 49 -45 4 -1 22 -8 38 -17 17 -8 36 -13 44 -10 7 2 17 -1 21 -8
6 -9 12 -9 30 0 15 8 20 8 16 1 -10 -16 1 -14 29 5 23 15 25 22 25 99 0 54 -5
93 -15 111 -8 16 -15 23 -15 17 0 -7 -7 -13 -16 -13 -8 0 -13 3 -10 8 2 4 -13
6 -35 4 -39 -4 -39 -4 -39 32 l0 36 105 0 104 0 0 -186 0 -186 -35 4 c-18 2
-34 0 -34 -5 0 -4 -21 -5 -47 -1 -27 5 -63 7 -81 6 -18 -1 -31 2 -28 7 3 4 -5
6 -17 4 -13 -3 -31 4 -44 17 -15 13 -23 16 -23 8 0 -9 -3 -10 -8 -2 -9 14 -54
39 -64 36 -5 -1 -8 2 -8 6 0 5 -8 17 -18 28 -15 16 -30 42 -37 64 -31 101 -29
230 5 303 21 45 43 72 37 45 -2 -7 -2 -10 0 -5 3 4 8 5 13 2 4 -3 6 4 3 14 -4
14 4 24 29 37 18 10 38 17 45 16 6 -1 15 3 19 9 5 8 3 9 -7 4 -8 -5 -11 -4 -6
1 5 5 13 10 18 10 5 1 10 3 12 4 4 4 69 12 114 14 23 1 45 5 50 9 4 4 13 5 21
2 7 -3 31 -5 51 -5z"/>
<path d="M1720 2700 c-8 -5 -10 -10 -5 -10 6 0 17 5 25 10 8 5 11 10 5 10 -5
0 -17 -5 -25 -10z"/>
<path d="M1847 2429 c7 -7 15 -10 18 -7 3 3 -2 9 -12 12 -14 6 -15 5 -6 -5z"/>
<path d="M1554 2269 c-3 -6 1 -17 10 -25 9 -8 11 -9 6 -2 -14 16 -13 31 2 22
7 -4 8 -3 4 4 -9 15 -13 15 -22 1z"/>
<path d="M1609 2253 c-7 -10 -10 -15 -5 -11 5 4 17 3 28 -3 18 -9 18 -8 8 10
-13 25 -14 26 -31 4z"/>
<path d="M1665 2181 c-3 -5 -2 -12 3 -15 5 -3 9 1 9 9 0 17 -3 19 -12 6z"/>
<path d="M1620 2176 c0 -2 7 -7 16 -10 8 -3 12 -2 9 4 -6 10 -25 14 -25 6z"/>
<path d="M1835 2140 c3 -5 8 -10 11 -10 2 0 4 5 4 10 0 6 -5 10 -11 10 -5 0
-7 -4 -4 -10z"/>
<path d="M2410 2679 c0 -62 3 -73 26 -94 45 -42 117 -59 244 -60 117 0 201 17
243 49 15 12 16 18 6 40 -11 23 -9 31 10 57 15 20 21 39 17 53 l-6 23 -131
-45 -132 -45 -139 45 -138 46 0 -69z m55 21 c-3 -5 4 -11 17 -11 32 -2 39 -3
73 -18 17 -7 44 -15 60 -18 17 -3 36 -10 42 -16 7 -5 20 -6 29 -3 9 4 23 1 31
-6 11 -9 13 -9 11 1 -2 8 14 18 37 26 22 7 54 18 70 25 17 7 34 12 39 11 4 -1
14 3 21 9 21 17 26 -3 9 -35 -11 -22 -13 -35 -5 -52 8 -18 8 -23 -4 -23 -8 0
-15 -5 -15 -11 0 -8 -11 -9 -32 -5 -24 4 -29 3 -18 -4 13 -8 12 -10 -5 -10
-11 -1 -36 -4 -55 -6 -78 -12 -233 -1 -238 16 -2 6 -8 8 -13 4 -13 -8 -69 28
-69 44 0 7 5 10 12 6 7 -4 8 -3 4 5 -6 8 -11 9 -21 1 -9 -8 -12 -3 -9 24 3 39
10 56 25 56 6 0 7 -4 4 -10z"/>
<path d="M2628 2631 c8 -4 13 -11 13 -15 -1 -3 1 -6 4 -6 3 0 10 0 17 0 6 0 3
7 -8 15 -10 8 -23 14 -29 15 -5 0 -4 -4 3 -9z"/>
<path d="M1726 2572 c-3 -5 1 -9 9 -9 8 0 12 4 9 9 -3 4 -7 8 -9 8 -2 0 -6 -4
-9 -8z"/>
<path d="M2436 2532 c-3 -5 1 -9 9 -9 8 0 12 4 9 9 -3 4 -7 8 -9 8 -2 0 -6 -4
-9 -8z"/>
<path d="M3171 2464 c0 -11 3 -14 6 -6 3 7 2 16 -1 19 -3 4 -6 -2 -5 -13z"/>
<path d="M2570 2364 c0 -50 -1 -54 -16 -40 -23 24 -77 20 -101 -6 -39 -44 -40
-126 -2 -167 25 -27 93 -29 108 -3 10 16 10 16 11 0 0 -13 8 -18 28 -18 l27 0
0 145 0 145 -27 0 c-27 0 -28 -2 -28 -56z m34 -47 c-7 -18 -24 -23 -24 -7 0 6
5 10 11 10 6 0 8 7 4 18 -4 12 -3 14 5 6 6 -6 8 -18 4 -27z m-53 -27 c14 -8
19 -21 19 -53 0 -47 -13 -67 -45 -67 -32 0 -45 20 -45 67 0 54 28 75 71 53z
m44 -10 c-3 -5 -2 -10 4 -10 6 0 7 -8 4 -17 -6 -15 -7 -15 -14 3 -11 27 -10
34 2 34 5 0 7 -4 4 -10z m-138 -22 c-3 -8 -6 -5 -6 6 -1 11 2 17 5 13 3 -3 4
-12 1 -19z m146 -60 c-7 -39 -9 -42 -22 -34 -6 4 -4 17 7 36 9 17 18 30 19 30
1 0 0 -15 -4 -32z m-124 -30 c0 -5 -2 -8 -6 -8 -5 0 -8 4 -8 9 0 5 -3 13 -7
17 -5 4 -8 12 -8 18 0 11 27 -23 29 -36z"/>
<path d="M2690 2271 l0 -141 24 0 c24 0 25 2 28 100 2 55 1 100 -2 100 -4 0
-11 -5 -18 -12 -9 -9 -12 -6 -12 14 0 15 5 30 10 33 6 4 8 11 5 16 -4 5 -2 9
2 9 15 0 30 -35 27 -63 -1 -15 10 -64 25 -109 24 -72 31 -83 52 -86 22 -3 27
3 44 55 39 122 44 144 35 138 -6 -4 -10 1 -10 9 0 9 5 16 11 16 5 0 7 5 4 10
-7 12 20 24 34 16 6 -4 2 -23 -9 -49 -14 -30 -20 -65 -20 -119 l0 -78 28 0 27
0 0 140 0 140 -35 0 -35 0 -33 -98 c-18 -54 -30 -106 -26 -115 3 -9 -1 -23 -9
-31 -13 -14 -15 -13 -20 4 -2 10 -1 22 4 27 5 5 -5 51 -24 108 l-34 100 -36 3
-37 3 0 -140z m262 32 c-3 -16 -7 -22 -10 -15 -4 13 4 42 11 42 2 0 2 -12 -1
-27z m-229 -128 c-3 -9 -8 -14 -10 -11 -3 3 -2 9 2 15 9 16 15 13 8 -4z"/>
<path d="M3284 2383 c-16 -3 -20 -9 -17 -24 4 -14 0 -19 -16 -19 -14 0 -21 -6
-21 -20 0 -13 7 -20 20 -20 18 0 20 -7 20 -69 0 -83 13 -101 71 -101 36 0 40
2 37 22 -2 17 -10 23 -28 23 -24 0 -25 3 -28 64 l-3 63 30 -4 c27 -4 31 -2 31
19 0 19 -5 23 -30 23 -25 0 -30 4 -30 25 0 14 -3 24 -7 24 -5 -1 -18 -4 -29
-6z m16 -59 c0 -9 5 -13 13 -9 6 4 3 -1 -8 -10 -18 -14 -20 -14 -26 2 -8 22 0
45 12 37 5 -3 9 -12 9 -20z m-3 -106 c-2 -13 -4 -3 -4 22 0 25 2 35 4 23 2
-13 2 -33 0 -45z m17 -55 c11 -13 16 -23 13 -23 -10 0 -37 31 -37 42 0 6 1 9
3 7 1 -2 11 -14 21 -26z"/>
<path d="M2374 2349 c-3 -6 0 -17 8 -25 13 -13 16 -13 29 3 13 16 12 17 -3 5
-17 -14 -35 -1 -23 18 3 6 4 10 1 10 -3 0 -8 -5 -12 -11z"/>
<path d="M3404 2352 c4 -3 14 -7 22 -8 9 -1 13 0 10 4 -4 3 -14 7 -22 8 -9 1
-13 0 -10 -4z"/>
<path d="M2060 2235 l0 -105 25 0 c24 0 25 3 25 61 0 72 12 99 44 99 22 0 36
16 36 41 0 10 -31 12 -54 3 -9 -3 -16 -12 -16 -19 0 -6 -9 -22 -20 -35 l-20
-23 2 26 c1 15 8 29 15 31 22 9 14 26 -12 26 l-25 0 0 -105z m30 -65 c0 -5 -5
-10 -11 -10 -5 0 -7 5 -4 10 3 6 8 10 11 10 2 0 4 -4 4 -10z"/>
<path d="M2230 2322 c-14 -11 -19 -23 -15 -35 9 -21 19 -22 35 -2 7 8 25 15
41 15 22 0 29 -5 29 -20 0 -15 -9 -21 -42 -26 -69 -12 -96 -54 -62 -102 18
-26 75 -30 95 -6 11 14 13 14 21 0 5 -9 22 -16 38 -16 23 0 30 5 30 20 0 11
-7 20 -15 20 -12 0 -15 14 -15 68 0 54 -4 72 -18 85 -25 23 -94 22 -122 -1z
m110 -23 c6 -11 9 -28 7 -37 -4 -13 -5 -11 -6 5 0 12 -8 29 -17 37 -8 9 -11
16 -5 16 6 0 15 -9 21 -21z m-7 -66 c-7 -2 -13 -15 -13 -28 0 -32 -31 -49 -55
-31 -25 18 -15 36 25 51 33 12 69 19 43 8z m-102 -56 c-10 -9 -11 -8 -5 6 3
10 9 15 12 12 3 -3 0 -11 -7 -18z m134 -17 c3 -5 2 -10 -4 -10 -5 0 -13 5 -16
10 -3 6 -2 10 4 10 5 0 13 -4 16 -10z"/>
<path d="M3057 2324 c-23 -12 -26 -18 -17 -34 10 -19 12 -19 35 -4 28 18 70
15 70 -6 0 -8 -18 -19 -44 -27 -24 -7 -49 -18 -57 -24 -17 -14 -18 -71 -2 -87
18 -18 85 -15 96 4 8 14 10 14 21 0 8 -9 26 -16 41 -16 23 0 27 4 23 20 -3 11
-9 20 -14 20 -5 0 -9 29 -9 65 0 52 -4 69 -20 85 -24 24 -82 26 -123 4z m117
-33 c-2 -3 -12 3 -22 13 -16 17 -16 18 5 5 12 -7 20 -15 17 -18z m-4 -51 c0
-5 -2 -10 -4 -10 -3 0 -8 5 -11 10 -3 6 -1 10 4 10 6 0 11 -4 11 -10z m-20
-28 c0 -26 -33 -54 -54 -46 -25 10 -16 47 14 55 38 11 40 10 40 -9z m-80 -47
c14 -19 14 -19 -2 -6 -10 7 -18 18 -18 24 0 6 1 8 3 6 1 -2 9 -13 17 -24z
m119 -9 c-3 -3 -11 5 -18 17 -13 21 -12 21 5 5 10 -10 16 -20 13 -22z"/>
<path d="M3439 2311 c-24 -25 -29 -37 -29 -81 0 -41 5 -56 25 -75 35 -36 105
-37 142 -2 l23 20 -21 15 c-19 13 -23 13 -31 -2 -18 -32 -88 -9 -88 29 0 9 -6
12 -16 8 -11 -4 -15 -1 -13 11 2 9 8 17 13 16 5 -1 14 9 20 22 13 26 50 35 72
18 27 -23 16 -37 -28 -36 -32 1 -43 -3 -43 -14 0 -12 15 -16 68 -18 66 -3 67
-3 67 23 0 33 -24 81 -45 89 -40 15 -87 6 -116 -23z m26 -142 c14 -21 -1 -17
-25 8 -23 24 -23 25 -3 15 12 -7 25 -17 28 -23z"/>
<path d="M2144 2139 c1 -7 10 -13 19 -15 9 -1 15 2 11 7 -3 5 -9 7 -14 4 -4
-3 -11 0 -13 5 -3 6 -4 5 -3 -1z"/>
<path d="M2331 1986 c-6 -7 -9 -21 -5 -30 6 -14 43 -16 369 -16 310 0 364 2
369 15 3 8 -2 21 -10 30 -13 13 -65 15 -363 15 -283 0 -351 -3 -360 -14z m249
-19 c14 -2 -24 -5 -84 -8 -64 -2 -115 0 -123 6 -12 9 131 10 207 2z m403 -4
c-23 -2 -64 -2 -90 0 -26 2 -7 3 42 3 50 0 71 -1 48 -3z"/>
<path d="M3082 1908 c2 -6 11 -13 19 -16 12 -3 12 -2 0 6 -11 8 -10 11 5 15
16 4 15 5 -4 6 -14 1 -22 -4 -20 -11z"/>
<path d="M2348 1893 c7 -3 16 -2 19 1 4 3 -2 6 -13 5 -11 0 -14 -3 -6 -6z"/>
</g>
</svg>
